<mxfile host="app.diagrams.net" modified="2023-07-30T03:53:41.092Z" agent="Mozilla/5.0 (iPhone; CPU iPhone OS 16_5_1 like Mac OS X) AppleWebKit/605.1.15 (KHTML, like Gecko) Version/16.5.2 Mobile/15E148 Safari/604.1" version="21.6.6" etag="f8RVjTkHVoMsfFcNCMgh" type="github">
  <diagram name="페이지-1" id="z2IM2lWRcVpmUuEdmG_H">
    <mxGraphModel>
      <root>
        <mxCell id="0" />
        <mxCell id="1" parent="0" />
      </root>
    </mxGraphModel>
  </diagram>
</mxfile>
